<?xml version="1.0" encoding="UTF-8" standalone="no"?><!DOCTYPE svg PUBLIC "-//W3C//DTD SVG 1.1//EN" "http://www.w3.org/Graphics/SVG/1.1/DTD/svg11.dtd"><svg width="100%" height="100%" viewBox="0 0 72 72" version="1.1" xmlns="http://www.w3.org/2000/svg" xmlns:xlink="http://www.w3.org/1999/xlink" xml:space="preserve" xmlns:serif="http://www.serif.com/" style="fill-rule:evenodd;clip-rule:evenodd;stroke-linecap:round;stroke-linejoin:round;stroke-miterlimit:1.5;"><rect id="achievements_hover" x="0" y="0" width="72" height="72" style="fill:none;"/><path d="M43.406,25.929c0,-1.227 -0.996,-2.222 -2.222,-2.222l-10.368,-0c-1.226,-0 -2.222,0.995 -2.222,2.222l-0,24.163c-0,1.226 0.996,2.221 2.222,2.221l10.368,0c1.226,0 2.222,-0.995 2.222,-2.221l0,-24.163Z" style="fill:#fffb0e;stroke:#b9b600;stroke-width:3.33px;"/><path d="M59.914,42.832c0,-0.923 -0.75,-1.673 -1.673,-1.673l-11.466,0c-0.923,0 -1.673,0.75 -1.673,1.673l0,7.808c0,0.924 0.75,1.673 1.673,1.673l11.466,0c0.923,0 1.673,-0.749 1.673,-1.673l0,-7.808Z" style="fill:#f8861d;stroke:#db6c07;stroke-width:3.33px;"/><path d="M27.011,33.836c-0,-1.226 -0.996,-2.222 -2.222,-2.222l-10.368,0c-1.227,0 -2.222,0.996 -2.222,2.222l-0,16.256c-0,1.226 0.995,2.221 2.222,2.221l10.368,0c1.226,0 2.222,-0.995 2.222,-2.221l-0,-16.256Z" style="fill:#e8e8e8;stroke:#b2b2b2;stroke-width:3.33px;"/></svg>