<?xml version="1.0" encoding="UTF-8" standalone="no"?><!DOCTYPE svg PUBLIC "-//W3C//DTD SVG 1.1//EN" "http://www.w3.org/Graphics/SVG/1.1/DTD/svg11.dtd"><svg width="100%" height="100%" viewBox="0 0 795 185" version="1.1" xmlns="http://www.w3.org/2000/svg" xmlns:xlink="http://www.w3.org/1999/xlink" xml:space="preserve" xmlns:serif="http://www.serif.com/" style="fill-rule:evenodd;clip-rule:evenodd;stroke-linecap:round;stroke-linejoin:round;stroke-miterlimit:1.5;"><rect id="complete3" x="0.975" y="0.204" width="793.949" height="183.952" style="fill:none;"/><path d="M778.386,21.129c0.618,0.073 2.42,-6.073 2.908,-5.998c1.362,0.211 0.359,10.447 -0.375,12.157c0.596,0.878 -48.827,82.476 -48.827,82.476c-0,-0 -28.534,-78.368 -28.439,-82.042c0.016,-0.602 -0.292,-11.911 0.375,-12.157c0.377,-0.139 1.589,5.626 2.14,5.503c-0.928,-3.131 -2.287,-4.998 -2.14,-5.503c1.029,-3.529 74.571,-3.137 77.266,-0.434c0.414,0.416 -1.142,2.507 -2.908,5.998Z" style="fill:#995a00;stroke:#995a00;stroke-width:20.29px;"/><path d="M732.467,97.607c-0,-0 -29.467,-78.513 -28.439,-82.042c1.029,-3.529 74.571,-3.137 77.266,-0.434c2.694,2.704 -48.827,82.476 -48.827,82.476Z" style="fill:#ffbe60;"/><path d="M748.497,126.667c0.106,2.226 0.05,7.889 0.008,8.519c-0.4,6.009 -10.417,16.025 -16.827,15.625c-6.41,-0.401 -14,-11.776 -13.555,-16.449c0.153,-1.113 -0.02,-4.436 0.148,-6.254c-0.042,-0.794 0.015,-1.582 0.186,-2.352c1.602,-7.212 7.211,-14.423 14.423,-14.022c7.611,0.422 16.026,8.814 15.625,14.823c-0.002,0.037 -0.005,0.073 -0.008,0.11Z" style="fill:#995a00;stroke:#995a00;stroke-width:20.29px;"/><path d="M732.88,111.734c7.611,0.422 16.026,8.814 15.625,14.823c-0.4,6.01 -10.417,16.026 -16.827,15.626c-6.41,-0.401 -14.824,-9.215 -13.221,-16.427c1.602,-7.212 7.211,-14.423 14.423,-14.022Z" style="fill:#ffbe60;"/><path d="M687.013,103.347l0.03,12.734l-1.268,28.274l-44.615,4.166c-0,0 -0.254,-6.155 0.049,-13.399l-0.049,0.004c-0,0 4.483,-112.869 6.591,-114.286c2.107,-1.416 36.25,-4.464 36.25,-4.464l-0.108,1.503c0.289,6.11 0.108,11.892 0.108,11.892l-1.775,24.702l-15.717,3.869l-0.674,6.627l18.419,1.109l-0.066,1.289l0.066,12.106l-1.014,19.643l-18.505,2.084l-0.406,4.012l22.628,-2.517l0.054,-0.036l0.001,0.03l0.031,-0.003l-0.03,0.661Z" style="fill:#219900;stroke:#219900;stroke-width:20.29px;"/><path d="M641.16,135.126c-0,0 4.483,-112.869 6.591,-114.286c2.107,-1.416 36.25,-4.464 36.25,-4.464l-1.775,24.702l-15.717,3.869l-2.028,19.941l19.773,1.19l-1.014,19.643l-18.505,2.084l-1.775,17.559l24.083,-2.678l-1.268,28.274l-44.615,4.166Z" style="fill:#7fff5b;"/><path d="M553.124,49.696l-0.031,-0.001l3.549,-31.845l67.937,0.893l-0.094,12.322l0.094,0.001l-0.254,33.334l-16.477,-3.869l-9.887,86.012l-31.433,-2.381l0.013,-12.322l-0.013,-0.001l6.892,-69.539l-20.327,-0.281l0.019,-12.257l0.012,-0.066Z" style="fill:#004b99;stroke:#004b99;stroke-width:20.29px;"/><path d="M566.528,131.839l8.112,-81.846l-21.547,-0.298l3.549,-31.845l67.937,0.893l-0.254,33.333l-16.477,-3.869l-9.887,86.013l-31.433,-2.381Z" style="fill:#4da2ff;"/><path d="M531.166,128.71l0.024,1.666l-0.01,11.25l-56.022,2.679c-0,-0 -0.433,-5.207 0.044,-11.23c0.001,-0.008 0.001,-0.016 0.002,-0.024l-0.046,0.002c-0,0 8.094,-109.691 13.609,-113.356c2.921,-1.941 48.244,-3.609 48.244,-3.609l2.788,19.643c0,0 -0.004,0.001 -0.013,0.002l0.004,0.01l0.009,11.24c0,-0 -25.603,4.167 -25.856,5.952c-0.108,0.761 -0.354,4.439 -0.601,8.41l20.627,0.577l-0.364,11.241l0.364,0.011l-0.761,23.512l-24.589,-0.893c0,-0 -1.32,4.649 -2.364,9.538c4.451,0.834 24.672,-4.123 24.672,-4.123l0.239,27.502Z" style="fill:#990003;stroke:#990003;stroke-width:20.29px;"/><path d="M475.158,133.053c-0,0 8.094,-109.691 13.609,-113.356c2.921,-1.941 48.244,-3.609 48.244,-3.609l2.788,19.643c0,0 -25.603,4.167 -25.856,5.953c-0.254,1.785 -1.268,19.643 -1.268,19.643l21.294,0.595l-0.761,23.512l-24.589,-0.893c0,-0 -5.323,18.75 -3.042,20.536c2.282,1.786 25.35,-3.869 25.35,-3.869l0.253,29.167l-56.022,2.678Z" style="fill:#ff575a;"/><path d="M416.536,134.261l2.273,-101.575l21.801,-8.849l2.282,69.151l22.054,-8.193c-0,-0 2.996,34.62 2.769,38.909c0.47,6.074 0.415,12.349 -0.234,13.764c-1.775,3.87 -50.953,8.929 -50.953,8.929l-0.003,-11.76l0.011,-0.376Z" style="fill:#995a00;stroke:#995a00;stroke-width:20.29px;"/><path d="M418.809,32.686l-2.281,101.924c-0,-0 49.178,-5.572 50.953,-9.832c1.774,-4.261 -2.535,-39.983 -2.535,-39.983l-22.054,8.193l-2.282,-69.151l-21.801,8.849Z" style="fill:#ffbe60;"/><path d="M332.528,129.443c-0.187,-21.143 0.344,-73.734 9.781,-90.472c15.463,-11.905 58.304,-18.75 63.374,14.583c0.362,2.972 -0.235,0.269 0.061,2.666c0.262,1.056 0.475,5.253 0.461,8.216c1.111,20.573 -25.376,47.813 -43.879,44.502c0.298,9.516 0.37,17.797 0.25,23.08c0.158,10.554 -0.03,17.946 -0.494,18.491c-0.761,0.893 -29.406,0.297 -29.406,0.297c0,0 -0.257,-8.831 -0.148,-21.363Zm47.114,-63.773c-7.488,-3.625 -22.191,0.055 -23.615,2.48c-0.71,1.207 -1.112,4.726 -1.339,8.549c2.257,-0.633 17.422,-5.034 24.954,-11.029Z" style="fill:#2a8a0f;stroke:#219900;stroke-width:20.29px;"/><path d="M332.676,138.376c0,-0 -2.281,-78.274 9.633,-99.405c15.463,-11.905 58.304,-18.75 63.374,14.583c2.535,20.834 -25.349,46.727 -43.855,42.857c1.035,21.47 1.014,40.774 0.254,41.667c-0.761,0.893 -29.406,0.298 -29.406,0.298Zm23.351,-82.657c-1.803,3.069 -1.623,21.059 -1.623,21.059c0,-0 32.087,-8.678 29.293,-18.942c-2.794,-10.265 -25.868,-5.185 -27.67,-2.117Z" style="fill:#7fff5b;"/><path d="M250.271,134.71l0.001,0.044l0.034,12.566l-28.899,3.869c0,-0 -0.369,-5.072 0.019,-12.603c0.001,-0.005 0.001,-0.01 0.001,-0.014l-0.02,0.002c0,0 4.31,-94.643 8.619,-101.191c3.549,-1.488 24.59,-3.571 24.59,-3.571c-0,-0 11.153,30.952 12.421,32.143c1.267,1.19 14.956,-31.548 14.956,-31.548l39.546,-5.06l-0.001,0.009l0.349,-0.101l-0.348,12.707l-5.07,100.596l-26.11,0.595l-4.563,-46.726l-6.338,30.952l-19.519,2.084l-10.361,-28.964l0.728,34.206l-0.035,0.005Z" style="fill:#004b99;stroke:#004b99;stroke-width:20.29px;"/><path d="M221.407,138.574c0,0 4.31,-94.643 8.619,-101.191c3.549,-1.488 24.59,-3.571 24.59,-3.571c-0,-0 11.153,30.952 12.421,32.143c1.267,1.19 14.956,-31.548 14.956,-31.548l39.546,-5.06l-5.07,100.596l-26.11,0.595l-4.563,-46.726l-6.338,30.953l-19.519,2.083l-10.647,-29.762l1.014,47.619l-28.899,3.869Z" style="fill:#4da2ff;"/><path d="M205.093,82.486c0.01,0.152 0.019,0.304 0.028,0.456c0.351,6.156 0.239,8.373 0.227,10.812c1.038,20.26 -17.099,56.916 -47.265,61.976c-30.166,5.059 -32.441,-2.091 -41.32,-13.096c-4.563,-5.654 -7.352,-19.345 -7.098,-35.416c0.018,-1.166 -0.488,-11.812 0.02,-15.687c0.674,-16.495 15.909,-55.068 47.891,-63.282c32.447,-8.333 45.629,30.357 47.404,50.893c0.093,1.075 0.13,2.192 0.113,3.344Zm-38.738,8.313c-2.642,-3.046 -8.349,-4.687 -12.526,-2.695c-2.81,1.341 -5.269,3.998 -7.057,6.97c2.738,2.186 6.954,2.947 13.439,1.043c2.914,-0.855 4.888,-2.872 6.144,-5.318Z" style="fill:#990003;stroke:#990003;stroke-width:20.29px;"/><path d="M109.665,92.238c0.253,-16.072 15.463,-55.655 47.911,-63.989c32.447,-8.333 45.629,30.357 47.404,50.893c1.774,20.536 -16.731,56.548 -46.897,61.608c-30.166,5.059 -32.441,-2.091 -41.32,-13.096c-4.563,-5.654 -7.352,-19.345 -7.098,-35.416Zm44.164,-19.114c-7.041,3.359 -11.882,14.985 -9.462,19.118c2.421,4.134 7.042,6.459 15.844,3.875c8.802,-2.583 9.022,-15.759 6.821,-19.376c-2.2,-3.617 -8.621,-5.802 -13.203,-3.617Z" style="fill:#ff575a;"/><path d="M14.885,115.988c-0.153,-2.59 -0.185,-5.37 -0.076,-8.358c0.589,-16.082 26.616,-81.47 78.838,-80.06c4.037,6.32 5.619,17.753 6.226,24.729c0.91,7.971 0.364,15.387 0.364,15.387c0,-0 -47.608,13.354 -52.133,36.935c3.8,27.065 37.451,15.729 45.036,14.616c0.01,0.05 0.021,0.101 0.031,0.152c0.082,-0.015 0.162,-0.029 0.238,-0.04c2.028,9.524 -0.776,35.242 -0.776,35.242c-0,-0 -37.186,27.543 -61.093,5.952c-6.591,-5.952 -17.745,-15.774 -16.731,-43.452c0.013,-0.346 0.038,-0.714 0.076,-1.103Z" style="fill:#995a00;stroke:#995a00;stroke-width:20.29px;"/><path d="M14.809,107.63c0.589,-16.082 26.616,-81.47 78.838,-80.06c6.084,9.524 6.59,30.655 6.59,30.655c0,-0 -51.986,14.583 -52.473,40.178c-0.665,34.909 37.264,22.024 45.376,20.834c2.028,9.524 -0.507,25.893 -0.507,25.893c-0,-0 -37.186,27.543 -61.093,5.952c-6.591,-5.952 -17.745,-15.774 -16.731,-43.452Z" style="fill:#ffbe60;"/></svg>