<?xml version="1.0" encoding="UTF-8" standalone="no"?><!DOCTYPE svg PUBLIC "-//W3C//DTD SVG 1.1//EN" "http://www.w3.org/Graphics/SVG/1.1/DTD/svg11.dtd"><svg width="100%" height="100%" viewBox="0 0 300 300" version="1.1" xmlns="http://www.w3.org/2000/svg" xmlns:xlink="http://www.w3.org/1999/xlink" xml:space="preserve" xmlns:serif="http://www.serif.com/" style="fill-rule:evenodd;clip-rule:evenodd;stroke-linejoin:round;stroke-miterlimit:2;"><rect id="continue" x="0" y="-0" width="300" height="300" style="fill:none;"/><g><path d="M295.833,36.25c0,-17.707 -14.376,-32.083 -32.083,-32.083l-227.5,-0c-17.707,-0 -32.083,14.376 -32.083,32.083l-0,227.5c-0,17.707 14.376,32.083 32.083,32.083l227.5,0c17.707,0 32.083,-14.376 32.083,-32.083l0,-227.5Z" style="fill:#404040;"/><path d="M199.458,143.985c2.115,1.266 3.41,3.55 3.41,6.015c-0,2.465 -1.295,4.749 -3.41,6.015c-22.265,13.328 -75.576,45.239 -98.354,58.874c-2.166,1.296 -4.862,1.328 -7.058,0.083c-2.196,-1.244 -3.553,-3.574 -3.553,-6.098c0,-26.964 0,-90.784 0,-117.748c-0,-2.524 1.357,-4.854 3.553,-6.098c2.196,-1.245 4.892,-1.213 7.058,0.083c22.778,13.635 76.089,45.546 98.354,58.874Z" style="fill:#dcdcdc;"/></g></svg>