<?xml version="1.0" encoding="UTF-8" standalone="no"?><!DOCTYPE svg PUBLIC "-//W3C//DTD SVG 1.1//EN" "http://www.w3.org/Graphics/SVG/1.1/DTD/svg11.dtd"><svg width="100%" height="100%" viewBox="0 0 36 33" version="1.1" xmlns="http://www.w3.org/2000/svg" xmlns:xlink="http://www.w3.org/1999/xlink" xml:space="preserve" xmlns:serif="http://www.serif.com/" style="fill-rule:evenodd;clip-rule:evenodd;stroke-linejoin:round;stroke-miterlimit:2;"><rect id="copy" x="0.339" y="0.557" width="35.037" height="32.329" style="fill:none;"/><g id="Layer76"><path d="M11.718,9.573c0.548,0.01 0.984,0.463 0.974,1.01c-0.011,0.547 -0.463,0.983 -1.01,0.973c-0,0 -4.876,-0.09 -4.892,-0.089c-0.151,0.009 -0.713,0.059 -1.197,0.292c-0.202,0.098 -0.423,0.216 -0.453,0.467c-0.172,1.469 -0.175,14.361 -0.173,15.453c0.032,0.198 0.158,0.843 0.497,1.387c0.181,0.291 0.428,0.577 0.83,0.596c1.752,0.084 11.053,-0.065 12.48,-0.089c0.352,-0.168 1.479,-0.837 1.479,-2.556c-0,-0.547 0.444,-0.992 0.991,-0.992c0.547,0 0.992,0.445 0.992,0.992c-0,3.599 -2.962,4.489 -2.962,4.489c-0.092,0.03 -0.189,0.046 -0.286,0.047c0,0 -10.87,0.182 -12.789,0.09c-1.126,-0.053 -1.911,-0.713 -2.419,-1.53c-0.628,-1.01 -0.789,-2.242 -0.789,-2.242c-0.006,-0.042 -0.009,-0.085 -0.009,-0.127c0,0 0.006,-14.193 0.189,-15.75c0.116,-0.986 0.766,-1.638 1.56,-2.021c0.927,-0.447 2.024,-0.49 2.024,-0.49c0.018,-0.001 0.037,-0.001 0.055,-0.001l4.908,0.091Z" style="fill:#ebebeb;"/><path d="M15.384,3.289c0.283,-0.972 1.045,-1.876 3.409,-1.806c0.363,-0.005 6.812,-0.088 8.768,0.001c0.744,0.034 1.752,0.535 2.756,1.304c1.961,1.504 4.045,3.953 4.045,3.953c0.15,0.177 0.233,0.401 0.236,0.633c-0,0 0.099,10.771 0.099,12.954c0,1.524 -0.872,2.444 -1.764,2.971c-0.81,0.478 -1.621,0.606 -1.621,0.606c-0.052,0.009 -0.104,0.013 -0.156,0.013c0,0 -12.032,0.052 -13.402,-0.039c-0.479,-0.032 -0.97,-0.305 -1.363,-0.811c-0.573,-0.74 -0.956,-2.044 -0.956,-2.774c0,-0.815 -0.091,-16.723 -0.091,-16.723c-0,-0.095 0.013,-0.191 0.04,-0.282Zm2.631,18.618c1.75,0.076 11.946,0.033 13.042,0.027c0.144,-0.032 0.505,-0.129 0.868,-0.343c0.384,-0.227 0.789,-0.606 0.789,-1.263c0,-1.94 -0.11,-9.812 -0.128,-11.711c-0.096,-0.096 -3.499,-0.011 -5.375,-0.011c0.006,-0.966 0.033,-4.729 0.016,-5.141c-1.986,-0.09 -8.424,0.001 -8.424,0.001c-0.015,0.001 -0.03,0 -0.045,-0c-0.506,-0.016 -0.886,0.017 -1.167,0.114c-0.124,0.042 -0.211,0.098 -0.262,0.175c0.01,1.819 0.089,15.777 0.089,16.539c0,0.301 0.127,0.767 0.312,1.166c0.072,0.155 0.222,0.362 0.285,0.447Z" style="fill:#ebebeb;"/></g></svg>