<?xml version="1.0" encoding="UTF-8" standalone="no"?><!DOCTYPE svg PUBLIC "-//W3C//DTD SVG 1.1//EN" "http://www.w3.org/Graphics/SVG/1.1/DTD/svg11.dtd"><svg width="100%" height="100%" viewBox="0 0 72 72" version="1.1" xmlns="http://www.w3.org/2000/svg" xmlns:xlink="http://www.w3.org/1999/xlink" xml:space="preserve" xmlns:serif="http://www.serif.com/" style="fill-rule:evenodd;clip-rule:evenodd;stroke-linecap:round;stroke-linejoin:round;stroke-miterlimit:1.5;"><rect id="help_hover" x="0" y="-0" width="72" height="72" style="fill:none;"/><path d="M25.773,45.263l14.444,2.943c-0,-0 0.156,-3.196 3.307,-5.759c3.15,-2.563 14.797,-7.551 16.671,-15.586c1.873,-8.035 -6.87,-15.91 -15.248,-19.178c-11.058,-4.313 -23.934,0.368 -28.81,14.855c1.883,0.822 15.254,3.384 15.254,3.384c-0,-0 1.536,-5.149 4.561,-6.299c3.025,-1.149 7.181,-0.336 8.376,3.227c1.195,3.564 -2.248,5.691 -6.436,7.37c-4.189,1.679 -10.575,5.889 -12.119,15.043Z" style="fill:#f60000;stroke:#cd0000;stroke-width:4.17px;"/><path d="M25.026,54.041l-2.11,11.103l12.516,2.326l2.157,-11.033l-12.563,-2.396Z" style="fill:#f60000;stroke:#cd0000;stroke-width:4.17px;"/></svg>