<?xml version="1.0" encoding="UTF-8" standalone="no"?><!DOCTYPE svg PUBLIC "-//W3C//DTD SVG 1.1//EN" "http://www.w3.org/Graphics/SVG/1.1/DTD/svg11.dtd"><svg width="100%" height="100%" viewBox="0 0 72 72" version="1.1" xmlns="http://www.w3.org/2000/svg" xmlns:xlink="http://www.w3.org/1999/xlink" xml:space="preserve" xmlns:serif="http://www.serif.com/" style="fill-rule:evenodd;clip-rule:evenodd;stroke-linecap:round;stroke-linejoin:round;stroke-miterlimit:1.5;"><rect id="help" x="0" y="0" width="72" height="72" style="fill:none;"/><path d="M29.01,45.273l12.252,0.097c0,-0 -0.382,-2.632 1.779,-5.225c2.161,-2.593 10.867,-8.521 11.114,-15.374c0.247,-6.854 -8.142,-11.884 -15.498,-13.213c-9.709,-1.755 -19.466,4.118 -21.133,16.713c1.667,0.371 12.983,0.328 12.983,0.328c0,-0 0.432,-4.446 2.717,-5.866c2.284,-1.42 5.804,-1.42 7.347,1.297c1.544,2.717 -0.926,5.001 -4.075,7.039c-3.149,2.037 -7.687,6.49 -7.486,14.204Z" style="fill:none;stroke:#a8a8a8;stroke-width:3.33px;"/><path d="M29.801,52.553l0.049,9.395l10.582,-0.099l-0,-9.345l-10.631,0.049Z" style="fill:none;stroke:#a8a8a8;stroke-width:3.33px;"/></svg>