<?xml version="1.0" encoding="UTF-8" standalone="no"?><!DOCTYPE svg PUBLIC "-//W3C//DTD SVG 1.1//EN" "http://www.w3.org/Graphics/SVG/1.1/DTD/svg11.dtd"><svg width="100%" height="100%" viewBox="0 0 130 65" version="1.1" xmlns="http://www.w3.org/2000/svg" xmlns:xlink="http://www.w3.org/1999/xlink" xml:space="preserve" xmlns:serif="http://www.serif.com/" style="fill-rule:evenodd;clip-rule:evenodd;stroke-linejoin:round;stroke-miterlimit:2;"><rect id="iArrow" x="0" y="0" width="130" height="65" style="fill:none;"/><path d="M18.866,43.651c-1.752,0 -3.173,-1.42 -3.173,-3.172c0,-4.241 0,-11.717 0,-15.958c0,-1.752 1.421,-3.172 3.173,-3.172c13.261,-0 63.58,-0 63.58,-0c-0,-0 -0,-7.154 -0,-13.052c-0.001,-1.283 0.772,-2.44 1.958,-2.931c1.185,-0.491 2.549,-0.219 3.457,0.688c7.094,7.094 19.216,19.217 24.203,24.203c1.238,1.239 1.238,3.247 -0,4.486c-4.987,4.986 -17.109,17.109 -24.203,24.203c-0.908,0.907 -2.272,1.179 -3.457,0.688c-1.186,-0.491 -1.959,-1.648 -1.958,-2.931c-0,-5.898 -0,-13.052 -0,-13.052l-63.58,0Z" style="fill:#e3e3e3;"/></svg>