<?xml version="1.0" encoding="UTF-8" standalone="no"?><!DOCTYPE svg PUBLIC "-//W3C//DTD SVG 1.1//EN" "http://www.w3.org/Graphics/SVG/1.1/DTD/svg11.dtd"><svg width="100%" height="100%" viewBox="0 0 171 97" version="1.1" xmlns="http://www.w3.org/2000/svg" xmlns:xlink="http://www.w3.org/1999/xlink" xml:space="preserve" xmlns:serif="http://www.serif.com/" style="fill-rule:evenodd;clip-rule:evenodd;stroke-linecap:round;stroke-linejoin:round;stroke-miterlimit:1.5;"><rect id="next_text" x="0.811" y="0.032" width="169.459" height="96.323" style="fill:none;"/><g id="Layer51"><path id="dark0" d="M24.66,66.281c0,-0 0.809,-33.187 8.394,-33.434c7.586,-0.248 16.56,30.896 16.56,30.896" style="fill:none;stroke:#024f1a;stroke-width:18.21px;"/><path id="dark1" d="M80.743,60.697c-0,-0 -16.747,5.588 -19.459,-3.604c-2.712,-9.191 0.202,-20.13 7.66,-23.676c7.458,-3.547 10.9,6.796 9.792,11.057c-1.556,5.99 -7.475,5.362 -14.178,1.386" style="fill:none;stroke:#024f1a;stroke-width:18.21px;"/><path id="dark2" d="M95.45,58.738c-0,-0 9.051,-22.776 14.276,-23.154" style="fill:none;stroke:#024f1a;stroke-width:18.21px;"/><path id="dark3" d="M94.406,39.912c-0,0 21.568,14.343 19.355,20.662" style="fill:none;stroke:#024f1a;stroke-width:18.21px;"/><path id="dark4" d="M133.782,39.094l0.446,17" style="fill:none;stroke:#024f1a;stroke-width:18.21px;"/><path id="dark5" d="M124.396,37.161l22.846,-5.471" style="fill:none;stroke:#024f1a;stroke-width:18.21px;"/></g><g id="Layer511" serif:id="Layer51"><path id="light0" d="M24.66,66.281c0,-0 0.809,-33.187 8.394,-33.434c7.586,-0.248 16.56,30.896 16.56,30.896" style="fill:none;stroke:#029430;stroke-width:5.57px;"/><path id="light1" d="M80.743,60.697c-0,-0 -16.747,5.588 -19.459,-3.604c-2.712,-9.191 0.202,-20.13 7.66,-23.676c7.458,-3.547 10.9,6.796 9.792,11.057c-1.556,5.99 -7.475,5.362 -14.178,1.386" style="fill:none;stroke:#029430;stroke-width:5.57px;"/><path id="light2" d="M95.45,58.738c-0,-0 9.051,-22.776 14.276,-23.154" style="fill:none;stroke:#029430;stroke-width:5.57px;"/><path id="light3" d="M94.406,39.912c-0,0 21.568,14.343 19.355,20.662" style="fill:none;stroke:#029430;stroke-width:5.57px;"/><path id="light4" d="M133.782,39.094l0.434,17" style="fill:none;stroke:#029430;stroke-width:5.57px;"/><path id="light5" d="M124.396,37.161l22.846,-5.471" style="fill:none;stroke:#029430;stroke-width:5.57px;"/></g></svg>