<?xml version="1.0" encoding="UTF-8" standalone="no"?><!DOCTYPE svg PUBLIC "-//W3C//DTD SVG 1.1//EN" "http://www.w3.org/Graphics/SVG/1.1/DTD/svg11.dtd"><svg width="100%" height="100%" viewBox="0 0 11 15" version="1.1" xmlns="http://www.w3.org/2000/svg" xmlns:xlink="http://www.w3.org/1999/xlink" xml:space="preserve" xmlns:serif="http://www.serif.com/" style="fill-rule:evenodd;clip-rule:evenodd;stroke-linecap:round;stroke-linejoin:round;stroke-miterlimit:1;"><rect id="RMB" x="0.003" y="0.144" width="10.467" height="13.852" style="fill:none;"/><path d="M9.544,5.089l-0,3.962c-0,2.187 -1.776,3.963 -3.963,3.963l-0.689,-0c-2.188,-0 -3.963,-1.776 -3.963,-3.963l-0,-3.962c-0,-2.187 1.775,-3.963 3.963,-3.963l0.689,0c2.187,0 3.963,1.776 3.963,3.963Z" style="fill:#fbfbfb;"/><clipPath id="_clip1"><path d="M9.544,5.089l-0,3.962c-0,2.187 -1.776,3.963 -3.963,3.963l-0.689,-0c-2.188,-0 -3.963,-1.776 -3.963,-3.963l-0,-3.962c-0,-2.187 1.775,-3.963 3.963,-3.963l0.689,0c2.187,0 3.963,1.776 3.963,3.963Z"/></clipPath><g clip-path="url(#_clip1)"><g id="Layer80"><path d="M5.213,1.061l-0,5.226l4.551,0l0.368,-3.563c0,0 -1.796,-3.543 -4.919,-1.663Z" style="fill:#17181a;stroke:#17181a;stroke-width:1.5px;"/><path d="M5.213,6.29l-4.19,-0" style="fill:none;stroke:#17181a;stroke-width:1.5px;"/></g></g><path d="M9.544,5.089l-0,3.962c-0,2.187 -1.776,3.963 -3.963,3.963l-0.689,-0c-2.188,-0 -3.963,-1.776 -3.963,-3.963l-0,-3.962c-0,-2.187 1.775,-3.963 3.963,-3.963l0.689,0c2.187,0 3.963,1.776 3.963,3.963Z" style="fill:none;stroke:#17181a;stroke-width:1.5px;"/></svg>