<?xml version="1.0" encoding="UTF-8" standalone="no"?><!DOCTYPE svg PUBLIC "-//W3C//DTD SVG 1.1//EN" "http://www.w3.org/Graphics/SVG/1.1/DTD/svg11.dtd"><svg width="100%" height="100%" viewBox="0 0 72 72" version="1.1" xmlns="http://www.w3.org/2000/svg" xmlns:xlink="http://www.w3.org/1999/xlink" xml:space="preserve" xmlns:serif="http://www.serif.com/" style="fill-rule:evenodd;clip-rule:evenodd;stroke-linecap:round;stroke-linejoin:round;stroke-miterlimit:1.5;"><rect id="settings" x="0" y="0" width="72" height="72" style="fill:none;"/><path d="M28.292,19.259c0,-0 3.521,-2.012 5.616,-1.509c0.922,-2.934 3.604,-7.208 3.604,-7.208c0,-0 9.807,1.424 10.813,3.017c-0,2.012 -1.006,6.789 -1.006,6.789c-0,0 3.353,2.18 5.113,5.448c3.477,-0.811 5.743,-1.331 7.59,-0.861c1.119,0.285 2.216,5.22 2.719,10.668c-2.37,2.173 -4.442,3.269 -6.873,3.353c0.081,2.377 -0.784,5.25 -1.592,6.621c1.76,1.425 3.101,3.605 4.023,5.7c-0.503,2.179 -5.281,6.538 -7.795,7.795c-2.515,-0.922 -4.694,-2.179 -5.951,-3.437c-2.119,0.919 -4.017,1.308 -6.538,1.342c-1.006,2.514 -3.101,6.956 -4.191,6.873c-1.089,-0.084 -9.052,-2.18 -10.058,-3.018c0.252,-2.011 0.754,-7.376 0.754,-7.376c0,0 -2.514,-1.508 -4.358,-4.777c-3.856,0.251 -7.795,0.503 -7.795,0.503c-0,-0 -3.185,-6.203 -2.934,-10.981c3.353,-2.263 6.454,-2.095 6.957,-2.682c0.168,-1.844 -0.167,-4.694 1.425,-7.04c-1.844,-1.258 -4.275,-5.784 -4.275,-5.784c0,0 4.946,-7.46 7.795,-8.13c2.599,0.754 6.957,4.694 6.957,4.694Zm7.85,10.387c-3.563,0.105 -7.753,3.667 -7.649,8.068c0.105,4.4 5.553,7.229 8.068,7.229c2.514,-0 7.334,-3.143 7.124,-7.963c-0.209,-4.819 -4.609,-7.42 -7.543,-7.334Z" style="fill:none;stroke:#a8a8a8;stroke-width:3.33px;"/></svg>