<?xml version="1.0" encoding="UTF-8" standalone="no"?><!DOCTYPE svg PUBLIC "-//W3C//DTD SVG 1.1//EN" "http://www.w3.org/Graphics/SVG/1.1/DTD/svg11.dtd"><svg width="100%" height="100%" viewBox="0 0 73 72" version="1.1" xmlns="http://www.w3.org/2000/svg" xmlns:xlink="http://www.w3.org/1999/xlink" xml:space="preserve" xmlns:serif="http://www.serif.com/" style="fill-rule:evenodd;clip-rule:evenodd;stroke-linecap:round;stroke-linejoin:round;stroke-miterlimit:1.5;"><rect id="settings_hover" x="0.037" y="0" width="72" height="72" style="fill:none;"/><path d="M32.756,14.621c0,-0 4.577,-1.204 6.787,-0.005c1.926,-3.028 6.241,-7.037 6.241,-7.037c-0,-0 10.625,4.568 11.278,6.668c-0.607,2.268 -3.185,7.35 -3.185,7.35c0,0 3.122,3.47 4.119,7.687c4.165,0.135 6.877,0.233 8.818,1.321c1.175,0.659 0.921,6.555 -0.158,12.849c-3.328,1.733 -5.995,2.343 -8.761,1.704c-0.627,2.704 -2.471,5.682 -3.796,6.984c1.554,2.138 2.408,5 2.814,7.641c-1.225,2.305 -7.928,5.775 -11.143,6.433c-2.556,-1.799 -4.633,-3.875 -5.671,-5.672c-2.666,0.395 -4.923,0.261 -7.775,-0.463c-1.894,2.531 -5.598,6.906 -6.801,6.482c-1.204,-0.423 -9.548,-5.191 -10.428,-6.44c0.891,-2.192 3.078,-8.087 3.078,-8.087c0,-0 -2.379,-2.461 -3.47,-6.703c-4.423,-0.882 -8.94,-1.788 -8.94,-1.788c-0,-0 -1.717,-7.955 0.009,-13.265c4.464,-1.539 7.91,-0.413 8.654,-0.922c0.746,-2.029 1.229,-5.343 3.733,-7.508c-1.699,-1.974 -3.072,-7.811 -3.072,-7.811c-0,-0 7.829,-6.916 11.244,-6.811c2.701,1.635 6.425,7.393 6.425,7.393Zm5.712,14.082c-4.048,-0.958 -9.849,1.792 -11.06,6.785c-1.211,4.992 4.076,9.827 6.911,10.587c2.835,0.759 9.218,-1.328 10.438,-6.825c1.219,-5.497 -2.955,-9.758 -6.289,-10.547Z" style="fill:#c5c5c5;stroke:#a8a8a8;stroke-width:4.17px;"/></svg>