<?xml version="1.0" encoding="UTF-8" standalone="no"?><!DOCTYPE svg PUBLIC "-//W3C//DTD SVG 1.1//EN" "http://www.w3.org/Graphics/SVG/1.1/DTD/svg11.dtd"><svg width="100%" height="100%" viewBox="0 0 72 72" version="1.1" xmlns="http://www.w3.org/2000/svg" xmlns:xlink="http://www.w3.org/1999/xlink" xml:space="preserve" xmlns:serif="http://www.serif.com/" style="fill-rule:evenodd;clip-rule:evenodd;stroke-linecap:round;stroke-linejoin:round;stroke-miterlimit:1.5;"><rect id="sound_off_hover" x="0" y="0" width="72" height="72" style="fill:none;"/><path d="M26.923,25.28c-0.814,0.128 -9.39,0.128 -10.247,-0c-0.858,-0.129 -2.573,0.386 -2.787,2.487c-0.215,2.101 -0,15.435 -0,16.421c-0,0.987 1.5,2.23 2.229,2.273c0.729,0.043 10.034,-0.086 10.805,-0.086c0.772,1.287 6.689,7.675 6.689,7.675l0.043,-36.317c0,0 -5.745,6.775 -6.732,7.547Z" style="fill:#c5c5c5;stroke:#a8a8a8;stroke-width:3.33px;"/><path d="M48.261,44.938c0.486,0.108 4.786,-4.747 4.786,-4.747c-0,0 4.67,4.747 4.9,4.747c0.23,0 4.632,-4.44 4.632,-4.785c0,-0.344 -4.785,-4.479 -4.785,-4.785c-0,-0.307 5.13,-4.594 4.9,-4.901c-0.23,-0.306 -4.441,-4.594 -4.785,-4.67c-0.345,-0.077 -4.441,4.785 -4.824,4.785c-0.383,0 -4.671,-4.823 -4.9,-4.785c-0.23,0.038 -4.747,4.249 -4.632,4.709c0.114,0.459 4.861,4.479 4.708,4.823c-0.153,0.345 -4.976,4.633 -4.785,4.939c0.191,0.306 4.441,4.594 4.785,4.67Z" style="fill:#f60000;stroke:#cd0000;stroke-width:3.33px;"/></svg>