<?xml version="1.0" encoding="UTF-8" standalone="no"?><!DOCTYPE svg PUBLIC "-//W3C//DTD SVG 1.1//EN" "http://www.w3.org/Graphics/SVG/1.1/DTD/svg11.dtd"><svg width="100%" height="100%" viewBox="0 0 72 72" version="1.1" xmlns="http://www.w3.org/2000/svg" xmlns:xlink="http://www.w3.org/1999/xlink" xml:space="preserve" xmlns:serif="http://www.serif.com/" style="fill-rule:evenodd;clip-rule:evenodd;stroke-linecap:round;stroke-linejoin:round;stroke-miterlimit:1.5;"><rect id="sound" x="0" y="0" width="72" height="72" style="fill:none;"/><path d="M26.923,25.28c-0.814,0.128 -9.39,0.128 -10.247,-0c-0.858,-0.129 -2.573,0.386 -2.787,2.487c-0.215,2.101 -0,15.435 -0,16.421c-0,0.987 1.5,2.23 2.229,2.273c0.729,0.043 10.034,-0.086 10.805,-0.086c0.772,1.287 6.689,7.675 6.689,7.675l0.043,-36.317c0,0 -5.745,6.775 -6.732,7.547Z" style="fill:none;stroke:#b2b2b2;stroke-width:3.33px;"/><path d="M42.731,21.903c1.224,0.204 3.303,1.19 5.232,3.069c2.496,2.43 4.836,6.313 4.757,11.011c-0.133,7.865 -6.442,12.953 -9.314,14.014c-1.221,0.451 -2.594,0.149 -3.513,-0.773c-0.92,-0.921 -1.219,-2.294 -0.766,-3.515c1.62,-4.361 1.425,-13.496 -0.171,-19.686c-0.282,-1.092 0.008,-2.253 0.77,-3.084c0.762,-0.832 1.893,-1.222 3.005,-1.036Zm-0.548,3.288c1.758,6.816 1.853,16.876 0.069,21.679c2.23,-0.824 7.032,-4.837 7.135,-10.943c0.103,-6.105 -5.146,-10.393 -7.204,-10.736Z" style="fill:#a8a8a8;"/><path d="M56.865,11.897c3.769,0.992 12.15,6.541 12.4,24.616c0.153,11.085 -4.629,17.758 -7.976,20.917c-1.903,1.797 -3.589,2.57 -4.199,2.722c-2.014,0.5 -3.126,-0.578 -3.612,-1.209c-0.577,-0.748 -1.136,-1.928 -0.367,-3.552c0.447,-0.944 3.784,-13.265 3.699,-18.781c-0.108,-7.081 -0.502,-12.114 -3.871,-20.209c-0.487,-1.17 -0.268,-2.515 0.565,-3.471c0.832,-0.956 2.135,-1.356 3.361,-1.033Zm2.543,45.578c-0.123,0.389 -0.217,0.654 -0.272,0.77c0.128,-0.27 0.216,-0.526 0.272,-0.77Zm-3.392,-42.355c3.576,8.59 4.012,13.925 4.127,21.439c0.091,5.952 -3.537,19.241 -4.019,20.259c-0.483,1.019 10.022,-4.77 9.808,-20.259c-0.215,-15.49 -6.685,-20.589 -9.916,-21.439Z" style="fill:#a8a8a8;"/></svg>