<?xml version="1.0" encoding="UTF-8" standalone="no"?><!DOCTYPE svg PUBLIC "-//W3C//DTD SVG 1.1//EN" "http://www.w3.org/Graphics/SVG/1.1/DTD/svg11.dtd"><svg width="100%" height="100%" viewBox="0 0 677 77" version="1.1" xmlns="http://www.w3.org/2000/svg" xmlns:xlink="http://www.w3.org/1999/xlink" xml:space="preserve" xmlns:serif="http://www.serif.com/" style="fill-rule:evenodd;clip-rule:evenodd;stroke-linejoin:round;stroke-miterlimit:2;"><rect id="title_how_to_play" x="0.135" y="0.854" width="676.699" height="75.923" style="fill:none;"/><g><g id="Layer78"><path d="M145.653,15.944l0,-7.019l18.183,-0l6.546,30.055l9.581,-30.055l18.117,-0l9.605,30.015l6.553,-30.015l18.088,-0l0,7.019l-13.656,53.687l-18.772,-0l-10.866,-33.802l-10.824,33.802l-18.772,-0l-13.783,-53.687Z" style="stroke:#000;stroke-width:11.09px;"/><path d="M145.653,8.925l18.183,-0l6.546,30.055l9.581,-30.055l18.117,-0l9.605,30.015l6.553,-30.015l18.088,-0l-13.656,53.686l-18.772,0l-10.866,-33.801l-10.824,33.801l-18.772,0l-13.783,-53.686Z" style="fill:#fff;fill-rule:nonzero;"/></g><g id="Layer781" serif:id="Layer78"><path d="M79.17,39.324c-0.106,-1.134 -0.159,-2.307 -0.159,-3.519c-0,-8.765 2.817,-15.589 8.451,-20.472c5.635,-4.882 13.481,-7.324 23.539,-7.324c10.311,0 18.256,2.399 23.834,7.196c5.578,4.798 8.367,11.517 8.367,20.16c0,1.267 -0.05,2.488 -0.149,3.662c0.099,1.085 0.149,2.204 0.149,3.358c0,6.274 -1.218,11.419 -3.655,15.435c-2.437,4.016 -5.959,7.141 -10.565,9.375c-4.606,2.234 -10.346,3.351 -17.221,3.351c-6.986,0 -12.769,-0.964 -17.347,-2.893c-4.578,-1.929 -8.29,-4.98 -11.135,-9.155c-2.846,-4.175 -4.268,-9.4 -4.268,-15.674c-0,-1.203 0.053,-2.37 0.159,-3.5Zm44.712,-0.348c-0.409,-3.45 -1.526,-6.079 -3.352,-7.889c-2.352,-2.332 -5.543,-3.497 -9.572,-3.497c-3.859,-0 -6.958,1.184 -9.297,3.552c-1.801,1.825 -2.909,4.57 -3.322,8.236c0.411,3.631 1.512,6.359 3.301,8.182c2.325,2.368 5.487,3.552 9.487,3.552c4.114,0 7.297,-1.16 9.551,-3.479c1.739,-1.789 2.806,-4.675 3.204,-8.657Z" style="stroke:#000;stroke-width:11.09px;"/><path d="M79.011,35.805c-0,-8.765 2.817,-15.589 8.451,-20.472c5.635,-4.882 13.481,-7.324 23.539,-7.324c10.311,0 18.256,2.399 23.834,7.196c5.578,4.798 8.367,11.517 8.367,20.16c0,6.274 -1.218,11.42 -3.655,15.436c-2.437,4.016 -5.959,7.141 -10.565,9.375c-4.606,2.234 -10.346,3.351 -17.221,3.351c-6.986,-0 -12.769,-0.965 -17.347,-2.893c-4.578,-1.929 -8.29,-4.981 -11.135,-9.156c-2.846,-4.174 -4.268,-9.399 -4.268,-15.673Zm19.143,0.073c-0,5.42 1.162,9.314 3.486,11.682c2.325,2.368 5.487,3.552 9.487,3.552c4.114,0 7.297,-1.16 9.551,-3.479c2.254,-2.319 3.381,-6.482 3.381,-12.488c-0,-5.053 -1.176,-8.746 -3.529,-11.078c-2.352,-2.331 -5.543,-3.497 -9.572,-3.497c-3.859,0 -6.958,1.184 -9.297,3.552c-2.338,2.369 -3.507,6.287 -3.507,11.756Z" style="fill:#fff;fill-rule:nonzero;"/></g><g id="Layer782" serif:id="Layer78"><path d="M9.41,69.631l-0,-60.706l19.143,-0l0,18.786l20.919,0l-0,-18.786l19.227,-0l0,60.706l-19.227,-0l-0,-21.717l-20.919,0l0,21.717l-19.143,-0Z" style="stroke:#000;stroke-width:11.09px;"/><path d="M9.41,8.925l19.143,-0l0,18.786l20.919,0l-0,-18.786l19.227,-0l0,53.686l-19.227,0l-0,-21.716l-20.919,-0l0,21.716l-19.143,0l-0,-53.686Z" style="fill:#fff;fill-rule:nonzero;"/></g><g id="Layer783" serif:id="Layer78"><path d="M263.091,29.201l0,-20.276l58.191,-0l-0,20.276l-19.524,-0l0,40.43l-19.143,-0l-0,-40.43l-19.524,-0Z" style="stroke:#000;stroke-width:11.09px;"/><path d="M263.091,8.925l58.191,-0l-0,13.256l-19.524,0l0,40.43l-19.143,0l-0,-40.43l-19.524,0l0,-13.256Z" style="fill:#fff;fill-rule:nonzero;"/></g><g id="Layer784" serif:id="Layer78"><path d="M324.737,39.324c-0.106,-1.134 -0.159,-2.307 -0.159,-3.519c-0,-8.765 2.817,-15.589 8.452,-20.472c5.634,-4.882 13.48,-7.324 23.538,-7.324c10.311,0 18.256,2.399 23.834,7.196c5.578,4.798 8.367,11.517 8.367,20.16c0,1.267 -0.049,2.488 -0.149,3.662c0.1,1.085 0.149,2.204 0.149,3.358c0,6.274 -1.218,11.419 -3.655,15.435c-2.437,4.016 -5.958,7.141 -10.565,9.375c-4.606,2.234 -10.346,3.351 -17.22,3.351c-6.987,0 -12.77,-0.964 -17.348,-2.893c-4.578,-1.929 -8.289,-4.98 -11.135,-9.155c-2.845,-4.175 -4.268,-9.4 -4.268,-15.674c-0,-1.203 0.053,-2.37 0.159,-3.5Zm44.712,-0.348c-0.408,-3.45 -1.526,-6.079 -3.352,-7.889c-2.352,-2.332 -5.543,-3.497 -9.571,-3.497c-3.86,-0 -6.959,1.184 -9.297,3.552c-1.802,1.825 -2.91,4.57 -3.323,8.236c0.412,3.631 1.512,6.359 3.302,8.182c2.324,2.368 5.486,3.552 9.487,3.552c4.113,0 7.297,-1.16 9.55,-3.479c1.739,-1.789 2.807,-4.675 3.204,-8.657Z" style="stroke:#000;stroke-width:11.09px;"/><path d="M324.578,35.805c-0,-8.765 2.817,-15.589 8.452,-20.472c5.634,-4.882 13.48,-7.324 23.538,-7.324c10.311,0 18.256,2.399 23.834,7.196c5.578,4.798 8.367,11.517 8.367,20.16c0,6.274 -1.218,11.42 -3.655,15.436c-2.437,4.016 -5.958,7.141 -10.565,9.375c-4.606,2.234 -10.346,3.351 -17.22,3.351c-6.987,-0 -12.77,-0.965 -17.348,-2.893c-4.578,-1.929 -8.289,-4.981 -11.135,-9.156c-2.845,-4.174 -4.268,-9.399 -4.268,-15.673Zm19.143,0.073c0,5.42 1.162,9.314 3.487,11.682c2.324,2.368 5.486,3.552 9.487,3.552c4.113,0 7.297,-1.16 9.55,-3.479c2.254,-2.319 3.381,-6.482 3.381,-12.488c0,-5.053 -1.176,-8.746 -3.529,-11.078c-2.352,-2.331 -5.543,-3.497 -9.571,-3.497c-3.86,0 -6.959,1.184 -9.297,3.552c-2.339,2.369 -3.508,6.287 -3.508,11.756Z" style="fill:#fff;fill-rule:nonzero;"/></g><g id="Layer785" serif:id="Layer78"><path d="M427.859,69.631l0,-60.706l31.821,-0c6.931,-0 12.121,1.428 15.573,4.284c3.451,2.857 5.176,6.922 5.176,12.195c0,1.224 -0.096,2.388 -0.287,3.491c0.191,1.109 0.287,2.285 0.287,3.529c0,5.419 -1.88,9.655 -5.641,12.707c-3.761,3.052 -9.502,4.578 -17.221,4.578l-10.48,-0l-0,19.922l-19.228,-0Zm19.228,-42.774l-0,4.956l4.691,-0c3.69,-0 6.282,-0.556 7.775,-1.666c0.36,-0.268 0.675,-0.553 0.948,-0.856c-0.195,-0.234 -0.412,-0.459 -0.652,-0.676c-1.296,-1.172 -3.733,-1.758 -7.311,-1.758l-5.451,0Z" style="stroke:#000;stroke-width:11.09px;"/><path d="M427.859,8.925l31.821,-0c6.931,-0 12.121,1.428 15.573,4.284c3.451,2.857 5.176,6.922 5.176,12.195c0,5.42 -1.88,9.656 -5.641,12.708c-3.761,3.051 -9.502,4.577 -17.221,4.577l-10.48,0l-0,19.922l-19.228,0l0,-53.686Zm19.228,22.888l4.691,-0c3.69,-0 6.282,-0.556 7.775,-1.666c1.493,-1.111 2.24,-2.533 2.24,-4.267c0,-1.684 -0.648,-3.113 -1.944,-4.284c-1.296,-1.172 -3.733,-1.758 -7.311,-1.758l-5.451,-0l-0,11.975Z" style="fill:#fff;fill-rule:nonzero;"/></g><g id="Layer786" serif:id="Layer78"><path d="M490.445,69.631l-0,-60.706l19.143,-0l0,40.466l29.877,-0l0,20.24l-49.02,-0Z" style="stroke:#000;stroke-width:11.09px;"/><path d="M490.445,8.925l19.143,-0l0,40.466l29.877,-0l0,13.22l-49.02,0l-0,-53.686Z" style="fill:#fff;fill-rule:nonzero;"/></g><g id="Layer787" serif:id="Layer78"><path d="M541.958,69.631l0,-7.02l23.285,-53.686l20.881,-0l23.28,53.686l-0,7.02l-20.047,-0l-3.099,-8.863l-21.734,0l-3.019,8.863l-19.547,-0Zm37.842,-27.491l-4.351,-12.28l-4.306,12.28l8.657,-0Z" style="stroke:#000;stroke-width:11.09px;"/><path d="M586.258,53.749l-21.734,-0l-3.019,8.862l-19.547,0l23.285,-53.686l20.881,-0l23.28,53.686l-20.047,0l-3.099,-8.862Zm-3.971,-11.609l-6.838,-19.299l-6.767,19.299l13.605,-0Z" style="fill:#fff;fill-rule:nonzero;"/></g><g id="Layer788" serif:id="Layer78"><path d="M601.882,15.944l-0,-7.019l21.264,-0l12.482,18.111l12.507,-18.111l21.15,-0l-0,7.019l-24.088,31.201l0,22.486l-19.185,-0l-0,-22.486l-24.13,-31.201Z" style="stroke:#000;stroke-width:11.09px;"/><path d="M601.882,8.925l21.264,-0l12.482,18.111l12.507,-18.111l21.15,-0l-24.088,31.201l0,22.485l-19.185,0l-0,-22.485l-24.13,-31.201Z" style="fill:#fff;fill-rule:nonzero;"/></g></g></svg>