<?xml version="1.0" encoding="UTF-8" standalone="no"?><!DOCTYPE svg PUBLIC "-//W3C//DTD SVG 1.1//EN" "http://www.w3.org/Graphics/SVG/1.1/DTD/svg11.dtd"><svg width="100%" height="100%" viewBox="0 0 504 79" version="1.1" xmlns="http://www.w3.org/2000/svg" xmlns:xlink="http://www.w3.org/1999/xlink" xml:space="preserve" xmlns:serif="http://www.serif.com/" style="fill-rule:evenodd;clip-rule:evenodd;stroke-linejoin:round;stroke-miterlimit:2;"><rect id="title_settings" x="0.417" y="0.135" width="503.234" height="78.286" style="fill:none;"/><g><g id="Layer77"><path d="M10.172,52.468c-0,0 0.249,-4.527 -0,-7.049l13.198,-0.717c-2.209,-0.913 -4.03,-1.914 -5.465,-3c-3.606,-2.71 -5.409,-6.165 -5.409,-10.364l-0,-7.049c-0,-2.759 0.923,-5.365 2.768,-7.819c1.845,-2.454 4.62,-4.382 8.325,-5.786c3.705,-1.404 8.783,-2.106 15.234,-2.106c7.917,0 13.953,1.276 18.108,3.827c4.156,2.551 6.628,6.61 7.417,12.177l-0,7.049l-7.869,0.399c3.375,1.561 5.85,3.472 7.425,5.735c1.648,2.368 2.472,5.017 2.472,7.947c0,1.226 -0.139,2.418 -0.418,3.577c0.279,1.11 0.418,2.267 0.418,3.472c0,3.443 -1.099,6.617 -3.296,9.522c-2.198,2.905 -5.268,5.109 -9.213,6.61c-3.944,1.501 -8.916,2.252 -14.917,2.252c-10.537,0 -17.833,-1.758 -21.89,-5.273c-4.057,-3.516 -6.353,-7.984 -6.888,-13.404Zm18.678,-5.896c0.448,1.539 1.096,2.778 1.944,3.718c1.972,2.172 4.789,3.259 8.452,3.259c2.733,-0 4.838,-0.556 6.318,-1.666c0.137,-0.104 0.268,-0.209 0.393,-0.315c-0.092,-0.079 -0.188,-0.157 -0.288,-0.235c-1.408,-1.098 -4.676,-2.136 -9.804,-3.113c-2.563,-0.499 -4.901,-1.048 -7.015,-1.648Zm15.626,-18.187c-0.355,-0.425 -0.753,-0.796 -1.194,-1.112c-1.536,-1.099 -3.656,-1.648 -6.36,-1.648c-1.287,0 -2.39,0.137 -3.31,0.41c1.105,0.36 2.574,0.706 4.408,1.037c2.337,0.436 4.489,0.874 6.456,1.313Z" style="stroke:#000;stroke-width:9.99px;"/><path d="M10.172,45.419l18.213,-0.989c0.395,2.564 1.198,4.517 2.409,5.86c1.972,2.172 4.789,3.259 8.452,3.259c2.733,-0 4.838,-0.556 6.318,-1.666c1.479,-1.111 2.218,-2.399 2.218,-3.864c0,-1.392 -0.704,-2.637 -2.113,-3.735c-1.408,-1.099 -4.676,-2.137 -9.804,-3.113c-8.395,-1.636 -14.382,-3.809 -17.96,-6.519c-3.606,-2.71 -5.409,-6.164 -5.409,-10.363c-0,-2.759 0.923,-5.365 2.768,-7.819c1.845,-2.454 4.62,-4.382 8.325,-5.786c3.705,-1.404 8.783,-2.106 15.234,-2.106c7.917,0 13.953,1.276 18.108,3.827c4.156,2.551 6.628,6.61 7.417,12.177l-18.045,0.915c-0.479,-2.417 -1.486,-4.175 -3.021,-5.273c-1.536,-1.099 -3.656,-1.648 -6.36,-1.648c-2.226,-0 -3.902,0.409 -5.029,1.226c-1.127,0.818 -1.691,1.813 -1.691,2.985c0,0.855 0.465,1.624 1.395,2.307c0.901,0.708 3.043,1.367 6.423,1.978c8.368,1.562 14.361,3.143 17.982,4.742c3.62,1.599 6.254,3.583 7.902,5.951c1.648,2.368 2.472,5.017 2.472,7.947c0,3.442 -1.099,6.616 -3.296,9.521c-2.198,2.906 -5.268,5.109 -9.213,6.611c-3.944,1.501 -8.916,2.252 -14.917,2.252c-10.537,-0 -17.833,-1.758 -21.89,-5.274c-4.057,-3.515 -6.353,-7.983 -6.888,-13.403Z" style="fill:#fff;fill-rule:nonzero;"/></g><g id="Layer771" serif:id="Layer77"><path d="M75.969,70.23l-0,-60.736l51.302,-0l0,18.512l-32.116,-0l-0,1.483l29.792,-0l0,17.999l-29.792,-0l-0,3.534l33.046,-0l0,19.208l-52.232,-0Z" style="stroke:#000;stroke-width:9.99px;"/><path d="M75.969,9.494l51.302,-0l0,11.462l-32.116,0l-0,8.533l29.792,-0l0,10.949l-29.792,0l-0,10.584l33.046,-0l0,12.158l-52.232,0l-0,-53.686Z" style="fill:#fff;fill-rule:nonzero;"/></g><g id="Layer772" serif:id="Layer77"><path d="M134.16,29.8l-0,-20.306l58.19,-0l0,20.306l-19.523,-0l-0,40.43l-19.144,-0l0,-40.43l-19.523,-0Z" style="stroke:#000;stroke-width:9.99px;"/><path d="M134.16,9.494l58.19,-0l0,13.256l-19.523,0l-0,40.43l-19.144,0l0,-40.43l-19.523,0l-0,-13.256Z" style="fill:#fff;fill-rule:nonzero;"/></g><g id="Layer773" serif:id="Layer77"><path d="M196.661,29.8l-0,-20.306l58.19,-0l0,20.306l-19.523,-0l-0,40.43l-19.144,-0l0,-40.43l-19.523,-0Z" style="stroke:#000;stroke-width:9.99px;"/><path d="M196.661,9.494l58.19,-0l0,13.256l-19.523,0l-0,40.43l-19.144,0l0,-40.43l-19.523,0l-0,-13.256Z" style="fill:#fff;fill-rule:nonzero;"/></g><g id="Layer774" serif:id="Layer77"><rect x="264.275" y="9.494" width="19.186" height="60.736" style="stroke:#000;stroke-width:9.99px;"/><rect x="264.275" y="9.494" width="19.186" height="53.687" style="fill:#fff;fill-rule:nonzero;"/></g><g id="Layer775" serif:id="Layer77"><path d="M297.322,70.23l-0,-60.736l17.875,-0l23.327,29.702l0,-29.702l18.045,-0l0,60.736l-18.045,-0l-23.2,-29.478l0,29.478l-18.002,-0Z" style="stroke:#000;stroke-width:9.99px;"/><path d="M297.322,9.494l17.875,-0l23.327,29.702l0,-29.702l18.045,-0l0,53.686l-18.045,0l-23.2,-29.478l0,29.478l-18.002,0l-0,-53.686Z" style="fill:#fff;fill-rule:nonzero;"/></g><g id="Layer776" serif:id="Layer77"><path d="M367.101,39.854c-0.119,-1.142 -0.179,-2.315 -0.179,-3.517c0,-5.859 1.395,-10.956 4.184,-15.289c2.789,-4.334 6.874,-7.624 12.255,-9.87c4.198,-1.733 9.847,-2.6 16.946,-2.6c6.846,0 11.966,0.537 15.361,1.611c3.395,1.075 6.212,2.741 8.452,4.999c2.24,2.259 3.923,5.121 5.05,8.588l0,7.049l-11.247,1.74l12.092,-0l0,29.938c-5.662,3.344 -10.67,5.621 -15.023,6.829c-4.353,1.209 -9.515,1.813 -15.488,1.813c-7.353,0 -13.347,-1.086 -17.981,-3.259c-4.634,-2.173 -8.226,-5.408 -10.776,-9.705c-2.55,-4.297 -3.825,-9.228 -3.825,-14.795c0,-1.209 0.06,-2.387 0.179,-3.532Zm43.104,-7.289c-0.778,-1.489 -1.901,-2.667 -3.369,-3.534c-1.817,-1.074 -4.134,-1.611 -6.951,-1.611c-4.198,-0 -7.544,1.263 -10.037,3.79c-1.938,1.964 -3.123,4.817 -3.555,8.559c0.435,3.952 1.634,6.897 3.597,8.836c2.522,2.49 6.036,3.735 10.544,3.735c2.141,0 4.184,-0.268 6.127,-0.805c0.719,-0.199 1.476,-0.449 2.272,-0.751l-8.399,-0l-0,-18.219l9.771,-0Z" style="stroke:#000;stroke-width:9.99px;"/><path d="M400.434,43.734l-0,-11.169l29.581,-0l0,22.888c-5.662,3.345 -10.67,5.621 -15.023,6.83c-4.353,1.208 -9.515,1.813 -15.488,1.813c-7.353,-0 -13.347,-1.087 -17.981,-3.26c-4.634,-2.172 -8.226,-5.407 -10.776,-9.704c-2.55,-4.297 -3.825,-9.229 -3.825,-14.795c0,-5.859 1.395,-10.956 4.184,-15.289c2.789,-4.334 6.874,-7.624 12.255,-9.87c4.198,-1.733 9.847,-2.6 16.946,-2.6c6.846,0 11.966,0.537 15.361,1.611c3.395,1.075 6.212,2.741 8.452,4.999c2.24,2.259 3.923,5.121 5.05,8.588l-18.467,2.856c-0.761,-2.026 -2.05,-3.576 -3.867,-4.651c-1.817,-1.074 -4.134,-1.611 -6.951,-1.611c-4.198,0 -7.544,1.264 -10.037,3.79c-2.493,2.527 -3.74,6.525 -3.74,11.994c0,5.81 1.261,9.961 3.782,12.451c2.522,2.49 6.036,3.735 10.544,3.735c2.141,0 4.184,-0.268 6.127,-0.805c1.944,-0.537 4.17,-1.453 6.677,-2.747l0,-5.054l-12.804,0Z" style="fill:#fff;fill-rule:nonzero;"/></g><g id="Layer777" serif:id="Layer77"><path d="M438.044,52.468c0,0 0.25,-4.527 0,-7.049l13.199,-0.717c-2.209,-0.913 -4.031,-1.914 -5.465,-3c-3.606,-2.71 -5.409,-6.165 -5.409,-10.364l-0,-7.049c-0,-2.759 0.922,-5.365 2.768,-7.819c1.845,-2.454 4.62,-4.382 8.325,-5.786c3.704,-1.404 8.783,-2.106 15.234,-2.106c7.917,0 13.953,1.276 18.108,3.827c4.156,2.551 6.628,6.61 7.417,12.177c-0,-0 -0.377,4.395 -0,7.049l-7.869,0.399c3.375,1.561 5.85,3.472 7.425,5.735c1.648,2.368 2.472,5.017 2.472,7.947l-0,7.049c-0,3.443 -1.099,6.617 -3.296,9.522c-2.198,2.905 -5.269,5.109 -9.213,6.61c-3.944,1.501 -8.916,2.252 -14.917,2.252c-10.537,0 -17.833,-1.758 -21.89,-5.273c-4.057,-3.516 -6.353,-7.984 -6.889,-13.404Zm18.679,-5.896c0.448,1.539 1.096,2.778 1.944,3.718c1.972,2.172 4.789,3.259 8.452,3.259c2.732,-0 4.838,-0.556 6.317,-1.666c0.138,-0.104 0.269,-0.209 0.394,-0.315c-0.093,-0.079 -0.188,-0.157 -0.288,-0.235c-1.409,-1.098 -4.677,-2.136 -9.804,-3.113c-2.563,-0.499 -4.901,-1.048 -7.015,-1.648Zm15.626,-18.187c-0.355,-0.425 -0.753,-0.796 -1.195,-1.112c-1.535,-1.099 -3.655,-1.648 -6.36,-1.648c-1.286,0 -2.389,0.137 -3.309,0.41c1.105,0.36 2.574,0.706 4.408,1.037c2.337,0.436 4.489,0.874 6.456,1.313Z" style="stroke:#000;stroke-width:9.99px;"/><path d="M438.044,45.419l18.214,-0.989c0.395,2.564 1.197,4.517 2.409,5.86c1.972,2.172 4.789,3.259 8.452,3.259c2.732,-0 4.838,-0.556 6.317,-1.666c1.479,-1.111 2.219,-2.399 2.219,-3.864c0,-1.392 -0.704,-2.637 -2.113,-3.735c-1.409,-1.099 -4.677,-2.137 -9.804,-3.113c-8.396,-1.636 -14.382,-3.809 -17.96,-6.519c-3.606,-2.71 -5.409,-6.164 -5.409,-10.363c-0,-2.759 0.922,-5.365 2.768,-7.819c1.845,-2.454 4.62,-4.382 8.325,-5.786c3.704,-1.404 8.783,-2.106 15.234,-2.106c7.917,0 13.953,1.276 18.108,3.827c4.156,2.551 6.628,6.61 7.417,12.177l-18.045,0.915c-0.479,-2.417 -1.486,-4.175 -3.022,-5.273c-1.535,-1.099 -3.655,-1.648 -6.36,-1.648c-2.225,-0 -3.901,0.409 -5.028,1.226c-1.127,0.818 -1.691,1.813 -1.691,2.985c0,0.855 0.465,1.624 1.395,2.307c0.901,0.708 3.042,1.367 6.423,1.978c8.367,1.562 14.361,3.143 17.981,4.742c3.621,1.599 6.255,3.583 7.903,5.951c1.648,2.368 2.472,5.017 2.472,7.947c-0,3.442 -1.099,6.616 -3.296,9.521c-2.198,2.906 -5.269,5.109 -9.213,6.611c-3.944,1.501 -8.916,2.252 -14.917,2.252c-10.537,-0 -17.833,-1.758 -21.89,-5.274c-4.057,-3.515 -6.353,-7.983 -6.889,-13.403Z" style="fill:#fff;fill-rule:nonzero;"/></g></g></svg>