<?xml version="1.0" encoding="UTF-8" standalone="no"?><!DOCTYPE svg PUBLIC "-//W3C//DTD SVG 1.1//EN" "http://www.w3.org/Graphics/SVG/1.1/DTD/svg11.dtd"><svg width="100%" height="100%" viewBox="0 0 455 77" version="1.1" xmlns="http://www.w3.org/2000/svg" xmlns:xlink="http://www.w3.org/1999/xlink" xml:space="preserve" xmlns:serif="http://www.serif.com/" style="fill-rule:evenodd;clip-rule:evenodd;stroke-linejoin:round;stroke-miterlimit:2;"><rect id="title_overall" x="0" y="0" width="454.065" height="76.622" style="fill:none;"/><clipPath id="_clip1"><rect x="0" y="0" width="454.065" height="76.622"/></clipPath><g clip-path="url(#_clip1)"><g><g id="Layer65"><path d="M6.119,38.737c-0.137,-1.337 -0.206,-2.726 -0.206,-4.169c0,-9.206 2.829,-16.374 8.485,-21.503c5.657,-5.129 13.534,-7.693 23.631,-7.693c10.352,-0 18.328,2.519 23.928,7.559c5.6,5.039 8.401,12.097 8.401,21.176c-0,1.507 -0.065,2.953 -0.193,4.337c0.128,1.28 0.193,2.606 0.193,3.979c-0,6.591 -1.224,11.995 -3.67,16.214c-2.447,4.219 -5.982,7.501 -10.607,9.848c-4.624,2.346 -10.387,3.519 -17.288,3.519c-7.014,0 -12.819,-1.013 -17.416,-3.039c-4.596,-2.026 -8.322,-5.231 -11.179,-9.616c-2.856,-4.386 -4.285,-9.874 -4.285,-16.464c0,-1.432 0.069,-2.815 0.206,-4.148Zm44.79,-0.326c-0.449,-3.412 -1.553,-6.03 -3.313,-7.855c-2.361,-2.449 -5.564,-3.674 -9.609,-3.674c-3.875,0 -6.986,1.244 -9.334,3.732c-1.734,1.837 -2.827,4.563 -3.28,8.178c0.451,3.581 1.537,6.289 3.259,8.124c2.334,2.488 5.508,3.732 9.525,3.732c4.129,-0 7.325,-1.219 9.588,-3.655c1.673,-1.802 2.728,-4.662 3.164,-8.582Z" style="fill:#070707;stroke:#070707;stroke-width:9.99px;"/><path d="M5.913,34.568c0,-9.206 2.829,-16.374 8.485,-21.503c5.657,-5.129 13.534,-7.693 23.631,-7.693c10.352,-0 18.328,2.519 23.928,7.559c5.6,5.039 8.401,12.097 8.401,21.176c-0,6.59 -1.224,11.995 -3.67,16.214c-2.447,4.218 -5.982,7.501 -10.607,9.847c-4.624,2.347 -10.387,3.52 -17.288,3.52c-7.014,-0 -12.819,-1.013 -17.416,-3.039c-4.596,-2.026 -8.322,-5.232 -11.179,-9.617c-2.856,-4.385 -4.285,-9.873 -4.285,-16.464Zm19.219,0.077c0,5.693 1.167,9.784 3.5,12.271c2.334,2.488 5.508,3.732 9.525,3.732c4.129,-0 7.325,-1.219 9.588,-3.655c2.262,-2.436 3.394,-6.808 3.394,-13.117c-0,-5.309 -1.181,-9.187 -3.543,-11.636c-2.361,-2.449 -5.564,-3.674 -9.609,-3.674c-3.875,0 -6.986,1.244 -9.334,3.731c-2.347,2.488 -3.521,6.604 -3.521,12.348Z" style="fill:#fff;fill-rule:nonzero;"/></g><g id="Layer64"><path d="M138.505,6.635l0.323,-0.133l-0.199,8.148l-23.094,56.393l-20.831,-0l-23.489,-56.393l-0.141,-8.26l0.198,0.081l-0.057,-0.137l20.09,-0l13.999,40.582l13.819,-40.582l19.506,-0l-0.124,0.301Z" style="fill:#070707;stroke:#070707;stroke-width:9.99px;"/><path d="M71.215,6.334l20.09,-0l13.999,40.582l13.819,-40.582l19.506,-0l-23.094,56.392l-20.831,0l-23.489,-56.392Z" style="fill:#fff;fill-rule:nonzero;"/></g><g id="Layer63"><path d="M144.865,71.043l0,-64.709l51.505,-0l-0,20.356l-32.244,0l0,0.647l29.91,-0l0,19.818l-29.91,-0l0,2.8l33.177,0l0,21.088l-52.438,-0Z" style="fill:#070707;stroke:#070707;stroke-width:9.99px;"/><path d="M144.865,6.334l51.505,-0l-0,12.04l-32.244,-0l0,8.963l29.91,-0l0,11.501l-29.91,0l0,11.117l33.177,0l0,12.771l-52.438,0l0,-56.392Z" style="fill:#fff;fill-rule:nonzero;"/></g><g id="Layer62"><path d="M207.909,71.043l0,-64.709l32.032,-0c5.939,-0 10.479,0.461 13.618,1.384c3.14,0.924 5.671,2.635 7.594,5.136c1.924,2.5 2.885,5.545 2.885,9.136c0,0.165 -0.002,0.33 -0.006,0.493c0.086,2.771 0.006,6.682 0.006,7.823c0,3.129 -0.736,5.828 -2.207,8.097c-1.181,1.821 -2.716,3.365 -4.607,4.633c1.267,1.44 2.119,2.556 2.556,3.35l9.307,16.34l-0.253,0l0.253,8.317l-21.716,-0l-10.273,-17.234c-1.301,-2.231 -2.461,-3.68 -3.479,-4.346c-1.386,-0.872 -2.955,-1.308 -4.709,-1.308l-1.697,-0l0,22.888l-19.304,-0Zm19.304,-45.007l0,3.147l8.103,-0c0.877,-0 2.574,-0.257 5.091,-0.769c0.882,-0.16 1.651,-0.492 2.309,-0.997c-1.298,-0.92 -3.651,-1.381 -7.06,-1.381l-8.443,0Z" style="fill:#070707;stroke:#070707;stroke-width:9.99px;"/><path d="M207.909,62.726l0,-56.392l32.032,-0c5.939,-0 10.479,0.461 13.618,1.384c3.14,0.924 5.671,2.635 7.594,5.136c1.924,2.5 2.885,5.545 2.885,9.136c0,3.128 -0.736,5.827 -2.207,8.097c-1.472,2.269 -3.495,4.109 -6.07,5.52c-1.642,0.897 -3.892,1.641 -6.75,2.231c2.289,0.693 3.957,1.386 5.003,2.079c0.707,0.462 1.731,1.45 3.074,2.965c1.342,1.514 2.24,2.682 2.692,3.504l9.307,16.34l-21.716,0l-10.273,-17.233c-1.301,-2.231 -2.461,-3.68 -3.479,-4.347c-1.386,-0.872 -2.955,-1.308 -4.709,-1.308l-1.697,0l0,22.888l-19.304,0Zm19.304,-33.543l8.103,-0c0.877,-0 2.574,-0.257 5.091,-0.769c1.273,-0.231 2.312,-0.821 3.119,-1.77c0.806,-0.949 1.209,-2.039 1.209,-3.27c-0,-1.82 -0.637,-3.218 -1.909,-4.193c-1.273,-0.974 -3.663,-1.461 -7.17,-1.461l-8.443,-0l0,11.463Z" style="fill:#fff;fill-rule:nonzero;"/></g><g id="Layer61"><path d="M269.77,62.726l-0.768,0l23.376,-56.392l20.964,-0l23.371,56.392l-0.088,0l0.067,0.138l0.021,8.179l-20.126,-0l-3.111,-9.309l-21.82,-0l-3.031,9.309l-19.623,-0l0.768,-8.317Zm36.903,-21.503l-4.049,-11.956l-4.006,11.956l8.055,0Z" style="fill:#070707;stroke:#070707;stroke-width:9.99px;"/><path d="M313.476,53.417l-21.82,0l-3.031,9.309l-19.623,0l23.376,-56.392l20.964,-0l23.371,56.392l-20.126,0l-3.111,-9.309Zm-3.987,-12.194l-6.865,-20.272l-6.793,20.272l13.658,0Z" style="fill:#fff;fill-rule:nonzero;"/></g><g id="Layer60"><path d="M342.822,71.043l0,-64.709l19.219,-0l-0,42.506l29.995,-0l-0,22.203l-49.214,-0Z" style="fill:#070707;stroke:#070707;stroke-width:9.99px;"/><path d="M342.822,6.334l19.219,-0l-0,42.506l29.995,-0l-0,13.886l-49.214,0l0,-56.392Z" style="fill:#fff;fill-rule:nonzero;"/></g><g id="Layer59"><path d="M400.775,71.043l0,-64.709l19.219,-0l-0,42.506l29.995,-0l-0,22.203l-49.214,-0Z" style="fill:#070707;stroke:#070707;stroke-width:9.99px;"/><path d="M400.775,6.334l19.219,-0l-0,42.506l29.995,-0l-0,13.886l-49.214,0l0,-56.392Z" style="fill:#fff;fill-rule:nonzero;"/></g></g></g></svg>