<?xml version="1.0" encoding="UTF-8" standalone="no"?><!DOCTYPE svg PUBLIC "-//W3C//DTD SVG 1.1//EN" "http://www.w3.org/Graphics/SVG/1.1/DTD/svg11.dtd"><svg width="100%" height="100%" viewBox="0 0 447 78" version="1.1" xmlns="http://www.w3.org/2000/svg" xmlns:xlink="http://www.w3.org/1999/xlink" xml:space="preserve" xmlns:serif="http://www.serif.com/" style="fill-rule:evenodd;clip-rule:evenodd;stroke-linejoin:round;stroke-miterlimit:2;"><rect id="title_results" x="0" y="0" width="446.298" height="77.045" style="fill:none;"/><clipPath id="_clip1"><rect x="0" y="0" width="446.298" height="77.045"/></clipPath><g clip-path="url(#_clip1)"><g><g id="Layer72"><path d="M5.926,71.384l0,-64.026l32.048,-0c5.943,-0 10.485,0.461 13.626,1.385c3.141,0.924 5.674,2.637 7.598,5.138c1.925,2.502 2.887,5.549 2.887,9.141c-0,1.343 -0,6.256 -0,7.603c-0,3.131 -0.736,5.831 -2.209,8.102c-1.264,1.95 -2.935,3.582 -5.013,4.898c0.088,0.098 0.177,0.198 0.268,0.3c1.343,1.515 2.241,2.684 2.693,3.506l9.312,16.349l0,7.604l-21.727,-0l-10.279,-17.243c-1.301,-2.232 -2.461,-3.682 -3.48,-4.349c-1.387,-0.872 -2.957,-1.308 -4.712,-1.308l-1.698,-0l0,22.9l-19.314,-0Zm19.314,-45.031l0,3.866l8.108,0c0.877,0 2.575,-0.257 5.093,-0.77c1.082,-0.196 1.996,-0.651 2.741,-1.366c-0.102,-0.093 -0.209,-0.181 -0.321,-0.267c-1.274,-0.975 -3.665,-1.463 -7.174,-1.463l-8.447,0Z" style="fill:#070707;stroke:#070707;stroke-width:11.09px;"/><path d="M5.926,63.78l0,-56.422l32.048,-0c5.943,-0 10.485,0.461 13.626,1.385c3.141,0.924 5.674,2.637 7.598,5.138c1.925,2.502 2.887,5.549 2.887,9.141c-0,3.13 -0.736,5.831 -2.209,8.102c-1.472,2.27 -3.497,4.111 -6.073,5.522c-1.642,0.898 -3.893,1.643 -6.753,2.233c2.29,0.693 3.959,1.387 5.005,2.08c0.707,0.462 1.732,1.451 3.076,2.966c1.343,1.515 2.241,2.684 2.693,3.506l9.312,16.349l-21.727,0l-10.279,-17.242c-1.301,-2.233 -2.461,-3.682 -3.48,-4.349c-1.387,-0.873 -2.957,-1.309 -4.712,-1.309l-1.698,0l0,22.9l-19.314,0Zm19.314,-33.561l8.108,0c0.877,0 2.575,-0.257 5.093,-0.77c1.274,-0.231 2.314,-0.821 3.12,-1.77c0.807,-0.949 1.21,-2.04 1.21,-3.272c0,-1.821 -0.637,-3.22 -1.91,-4.195c-1.274,-0.975 -3.665,-1.462 -7.174,-1.462l-8.447,-0l0,11.469Z" style="fill:#fff;fill-rule:nonzero;"/></g><g id="Layer74"><path d="M73.249,71.384l-0,-64.026l51.531,-0l0,19.65l-32.26,-0l-0,1.364l29.925,-0l0,19.111l-29.925,-0l-0,3.519l33.194,0l-0,20.382l-52.465,-0Z" style="fill:#070707;stroke:#070707;stroke-width:11.09px;"/><path d="M73.249,7.358l51.531,-0l0,12.046l-32.26,0l-0,8.968l29.925,-0l0,11.507l-29.925,0l-0,11.123l33.194,0l-0,12.778l-52.465,0l-0,-56.422Z" style="fill:#fff;fill-rule:nonzero;"/></g><g id="Layer69"><path d="M384.675,52.717c-0,0 0.257,-4.877 -0,-7.603l12.865,-0.731c-2.043,-0.914 -3.742,-1.907 -5.097,-2.981c-3.622,-2.848 -5.433,-6.479 -5.433,-10.892c-0,-1.264 0.176,-2.498 0.528,-3.702c-0.352,-1.224 -0.528,-2.525 -0.528,-3.902c-0,-2.899 0.926,-5.638 2.78,-8.217c1.853,-2.578 4.641,-4.605 8.362,-6.081c3.721,-1.475 8.822,-2.213 15.302,-2.213c7.952,0 14.015,1.341 18.189,4.022c4.174,2.682 6.658,6.947 7.45,12.797c-0,0 -0.389,4.729 -0,7.604l-7.546,0.4c3.208,1.608 5.575,3.558 7.1,5.852c1.656,2.489 2.483,5.273 2.483,8.352c0,1.323 -0.147,2.61 -0.443,3.858c0.296,1.196 0.443,2.444 0.443,3.745c0,3.618 -1.103,6.953 -3.311,10.007c-2.207,3.053 -5.291,5.369 -9.253,6.947c-3.962,1.578 -8.957,2.367 -14.984,2.367c-10.584,-0 -17.913,-1.848 -21.988,-5.542c-4.075,-3.695 -6.381,-8.391 -6.919,-14.087Zm18.823,-6.178c0.447,1.518 1.077,2.749 1.891,3.693c1.981,2.284 4.811,3.426 8.49,3.426c2.745,-0 4.86,-0.584 6.346,-1.751c0.098,-0.077 0.193,-0.155 0.284,-0.234c-0.058,-0.05 -0.117,-0.099 -0.178,-0.149c-1.415,-1.155 -4.698,-2.245 -9.848,-3.271c-2.549,-0.52 -4.878,-1.091 -6.985,-1.714Zm15.433,-19.374c-0.304,-0.347 -0.636,-0.656 -0.998,-0.927c-1.543,-1.155 -3.672,-1.732 -6.389,-1.732c-1.148,-0 -2.151,0.113 -3.008,0.34c1.068,0.341 2.439,0.67 4.112,0.986c2.268,0.443 4.362,0.887 6.283,1.333Z" style="fill:#070707;stroke:#070707;stroke-width:11.09px;"/><path d="M384.675,45.114l18.295,-1.039c0.396,2.694 1.203,4.746 2.419,6.157c1.981,2.284 4.811,3.426 8.49,3.426c2.745,-0 4.86,-0.584 6.346,-1.751c1.486,-1.168 2.228,-2.521 2.228,-4.061c0,-1.462 -0.707,-2.771 -2.122,-3.925c-1.415,-1.155 -4.698,-2.246 -9.848,-3.272c-8.433,-1.719 -14.446,-4.003 -18.04,-6.851c-3.622,-2.848 -5.433,-6.478 -5.433,-10.892c-0,-2.899 0.926,-5.638 2.78,-8.217c1.853,-2.578 4.641,-4.605 8.362,-6.081c3.721,-1.475 8.822,-2.213 15.302,-2.213c7.952,0 14.015,1.341 18.189,4.022c4.174,2.682 6.658,6.947 7.45,12.797l-18.125,0.963c-0.481,-2.541 -1.493,-4.388 -3.035,-5.543c-1.543,-1.154 -3.672,-1.732 -6.389,-1.732c-2.235,0 -3.919,0.43 -5.051,1.29c-1.132,0.859 -1.698,1.905 -1.698,3.137c0,0.898 0.467,1.706 1.401,2.424c0.905,0.744 3.056,1.437 6.452,2.079c8.405,1.642 14.425,3.303 18.061,4.984c3.637,1.68 6.283,3.765 7.938,6.254c1.656,2.489 2.483,5.273 2.483,8.352c0,3.617 -1.103,6.953 -3.311,10.006c-2.207,3.054 -5.291,5.369 -9.253,6.947c-3.962,1.578 -8.957,2.367 -14.984,2.367c-10.584,0 -17.913,-1.847 -21.988,-5.542c-4.075,-3.695 -6.381,-8.39 -6.919,-14.086Z" style="fill:#fff;fill-rule:nonzero;"/></g><g id="Layer73"><path d="M198.894,48.577l-0,-41.219l19.186,-0l0,34.416c0,3.076 0.941,5.48 2.823,7.21c1.882,1.73 4.492,2.596 7.832,2.596c3.31,-0 5.907,-0.853 7.789,-2.558c1.882,-1.705 2.822,-4.121 2.822,-7.248l0,-34.416l19.187,-0l-0,41.219c-0,3.333 -0.573,6.48 -1.719,9.442c-1.146,2.961 -2.943,5.551 -5.391,7.769c-2.448,2.218 -5.016,3.776 -7.704,4.673c-3.736,1.256 -8.221,1.885 -13.456,1.885c-3.028,-0 -6.332,-0.193 -9.912,-0.577c-3.58,-0.385 -6.572,-1.148 -8.978,-2.289c-2.405,-1.141 -4.605,-2.763 -6.6,-4.865c-1.995,-2.103 -3.361,-4.269 -4.096,-6.5c-1.189,-3.59 -1.783,-6.769 -1.783,-9.538Z" style="fill:#070707;stroke:#070707;stroke-width:11.09px;"/><path d="M239.346,7.358l19.187,-0l-0,33.615c-0,3.333 -0.573,6.481 -1.719,9.442c-1.146,2.962 -2.943,5.552 -5.391,7.77c-2.448,2.218 -5.016,3.775 -7.704,4.673c-3.736,1.256 -8.221,1.884 -13.456,1.884c-3.028,0 -6.332,-0.192 -9.912,-0.577c-3.58,-0.384 -6.572,-1.147 -8.978,-2.288c-2.405,-1.141 -4.605,-2.763 -6.6,-4.866c-1.995,-2.102 -3.361,-4.269 -4.096,-6.499c-1.189,-3.59 -1.783,-6.77 -1.783,-9.539l-0,-33.615l19.186,-0l0,34.416c0,3.076 0.941,5.48 2.823,7.21c1.882,1.73 4.492,2.596 7.832,2.596c3.31,-0 5.907,-0.853 7.789,-2.558c1.882,-1.705 2.822,-4.121 2.822,-7.248l0,-34.416Z" style="fill:#fff;fill-rule:nonzero;"/></g><g id="Layer71"><path d="M271.267,71.384l0,-64.026l19.229,-0l-0,42.528l30.011,0l-0,21.498l-49.24,-0Z" style="fill:#070707;stroke:#070707;stroke-width:11.09px;"/><path d="M271.267,7.358l19.229,-0l-0,42.528l30.011,0l-0,13.894l-49.24,0l0,-56.422Z" style="fill:#fff;fill-rule:nonzero;"/></g><g id="Layer70"><path d="M320.876,28.894l-0,-21.536l58.45,-0l0,21.536l-19.61,-0l-0,42.49l-19.229,-0l-0,-42.49l-19.611,-0Z" style="fill:#070707;stroke:#070707;stroke-width:11.09px;"/><path d="M320.876,7.358l58.45,-0l0,13.932l-19.61,0l-0,42.49l-19.229,0l-0,-42.49l-19.611,0l-0,-13.932Z" style="fill:#fff;fill-rule:nonzero;"/></g><g id="Layer75"><path d="M132.718,52.717c-0,0 0.257,-4.877 -0,-7.603l12.865,-0.731c-2.043,-0.914 -3.742,-1.907 -5.097,-2.981c-3.622,-2.848 -5.434,-6.479 -5.434,-10.892c0,-1.264 0.177,-2.498 0.529,-3.702c-0.352,-1.224 -0.529,-2.525 -0.529,-3.902c0,-2.899 0.927,-5.638 2.781,-8.217c1.853,-2.578 4.641,-4.605 8.362,-6.081c3.721,-1.475 8.822,-2.213 15.302,-2.213c7.952,0 14.015,1.341 18.189,4.022c4.174,2.682 6.657,6.947 7.45,12.797c-0,0 -0.39,4.729 -0,7.604l-7.546,0.4c3.208,1.608 5.574,3.558 7.1,5.852c1.656,2.489 2.483,5.273 2.483,8.352c0,1.323 -0.148,2.61 -0.443,3.858c0.295,1.196 0.443,2.444 0.443,3.745c0,3.618 -1.103,6.953 -3.311,10.007c-2.207,3.053 -5.291,5.369 -9.253,6.947c-3.962,1.578 -8.957,2.367 -14.984,2.367c-10.584,-0 -17.913,-1.848 -21.988,-5.542c-4.075,-3.695 -6.382,-8.391 -6.919,-14.087Zm18.823,-6.178c0.447,1.518 1.077,2.749 1.891,3.693c1.981,2.284 4.811,3.426 8.49,3.426c2.745,-0 4.86,-0.584 6.346,-1.751c0.098,-0.077 0.192,-0.155 0.284,-0.234c-0.058,-0.05 -0.117,-0.099 -0.178,-0.149c-1.415,-1.155 -4.698,-2.245 -9.848,-3.271c-2.549,-0.52 -4.878,-1.091 -6.985,-1.714Zm15.433,-19.374c-0.304,-0.347 -0.637,-0.656 -0.998,-0.927c-1.543,-1.155 -3.672,-1.732 -6.389,-1.732c-1.148,-0 -2.151,0.113 -3.008,0.34c1.068,0.341 2.439,0.67 4.112,0.986c2.268,0.443 4.362,0.887 6.283,1.333Z" style="fill:#070707;stroke:#070707;stroke-width:11.09px;"/><path d="M132.718,45.114l18.295,-1.039c0.396,2.694 1.202,4.746 2.419,6.157c1.981,2.284 4.811,3.426 8.49,3.426c2.745,-0 4.86,-0.584 6.346,-1.751c1.485,-1.168 2.228,-2.521 2.228,-4.061c0,-1.462 -0.707,-2.771 -2.122,-3.925c-1.415,-1.155 -4.698,-2.246 -9.848,-3.272c-8.433,-1.719 -14.446,-4.003 -18.04,-6.851c-3.622,-2.848 -5.434,-6.478 -5.434,-10.892c0,-2.899 0.927,-5.638 2.781,-8.217c1.853,-2.578 4.641,-4.605 8.362,-6.081c3.721,-1.475 8.822,-2.213 15.302,-2.213c7.952,0 14.015,1.341 18.189,4.022c4.174,2.682 6.657,6.947 7.45,12.797l-18.125,0.963c-0.481,-2.541 -1.493,-4.388 -3.035,-5.543c-1.543,-1.154 -3.672,-1.732 -6.389,-1.732c-2.235,0 -3.919,0.43 -5.051,1.29c-1.132,0.859 -1.698,1.905 -1.698,3.137c0,0.898 0.467,1.706 1.401,2.424c0.905,0.744 3.056,1.437 6.452,2.079c8.405,1.642 14.425,3.303 18.061,4.984c3.637,1.68 6.283,3.765 7.938,6.254c1.656,2.489 2.483,5.273 2.483,8.352c0,3.617 -1.103,6.953 -3.311,10.006c-2.207,3.054 -5.291,5.369 -9.253,6.947c-3.962,1.578 -8.957,2.367 -14.984,2.367c-10.584,0 -17.913,-1.847 -21.988,-5.542c-4.075,-3.695 -6.382,-8.39 -6.919,-14.086Z" style="fill:#fff;fill-rule:nonzero;"/></g></g></g></svg>