<?xml version="1.0" encoding="UTF-8" standalone="no"?><!DOCTYPE svg PUBLIC "-//W3C//DTD SVG 1.1//EN" "http://www.w3.org/Graphics/SVG/1.1/DTD/svg11.dtd"><svg width="100%" height="100%" viewBox="0 0 214 53" version="1.1" xmlns="http://www.w3.org/2000/svg" xmlns:xlink="http://www.w3.org/1999/xlink" xml:space="preserve" xmlns:serif="http://www.serif.com/" style="fill-rule:evenodd;clip-rule:evenodd;stroke-linecap:round;stroke-linejoin:round;stroke-miterlimit:1;"><rect id="Wizardry" x="0.188" y="0.058" width="212.751" height="52.404" style="fill:none;"/><path d="M181.637,14.069l-0,3.595l-6.753,12.932c0,0 -4.103,9.964 -5.164,10.24c-3.341,0.349 -6.326,-3.016 -6.326,-3.016l-0,-3.596l2.99,-6.834l-5.123,-8.549l-0,-3.595l6.252,-2.796l4.09,6.424l4.076,-5.982l5.958,1.177Z" style="fill:#7f00dd;stroke:#7f00dd;stroke-width:3px;"/><path d="M161.261,15.246l6.032,10.066l-3.899,8.912c-0,0 2.985,3.365 6.326,3.016c1.061,-0.275 5.164,-10.239 5.164,-10.239l6.753,-12.932l-5.958,-1.177l-4.076,5.982l-4.09,-6.424l-6.252,2.796Z" style="fill:#ca83ff;"/><path d="M144.009,38.734c0,-0 -2.061,-19.195 -1.368,-21.111c0.722,-1.998 4.653,-6.09 10.538,-5.474c5.884,0.616 6.227,4.379 6.432,6.706c0.049,0.556 0.116,3.045 0.12,3.617c0.011,1.283 -0.629,2.49 -1.399,3.52c1.694,1.937 3.263,4.701 3.263,4.701l0,3.593l-6.158,4.106l-5.654,-6.614l0.658,4.047l0,3.593c0,0 -3.558,0.411 -6.432,-0.684Zm10.586,-17.255c-1.206,-0.647 -3.071,-0.754 -4.29,-0.468c-1.134,0.265 -1.888,0.556 -2.36,0.905c0.871,1.561 2.136,1.058 3.797,0.702c1.093,-0.234 2.112,-0.623 2.853,-1.139Z" style="fill:#7f00dd;stroke:#7f00dd;stroke-width:3px;"/><path d="M144.009,35.141c0,-0 -1.916,-15.465 -1.368,-17.518c0.547,-2.053 4.653,-6.09 10.538,-5.474c5.884,0.616 6.227,4.379 6.432,6.706c0.205,2.326 -2.258,4.995 -3.353,5.406c2.19,0.889 5.337,6.432 5.337,6.432l-6.158,4.106l-6.377,-7.459l1.381,8.485c0,0 -3.558,0.411 -6.432,-0.684Zm6.296,-17.723c-3.217,0.752 -3.371,1.711 -2.733,3.624c0.864,2.592 2.254,1.987 4.17,1.576c2.402,-0.514 4.447,-1.779 3.968,-3.49c-0.479,-1.71 -3.628,-2.126 -5.405,-1.71Z" style="fill:#ca83ff;"/><path d="M122.959,16.807c-0.06,-2.063 -0.077,-3.484 -0.013,-3.593c0.252,-0.432 17.788,-3.385 17.788,10.883c0,0.598 -0.039,1.161 -0.114,1.693c0.075,0.601 0.114,1.238 0.114,1.914c0,10.797 -12.838,10.537 -17.033,10.537c-0,0 -1.007,-20.988 -0.755,-21.42c0.002,-0.004 0.007,-0.009 0.013,-0.014Zm11.522,8.092c-1.007,-1.943 -3.295,-3.109 -5.967,-1.581l0.137,4.234c0,0 4.284,-0.744 5.83,-2.653Z" style="fill:#7f00dd;stroke:#7f00dd;stroke-width:3px;"/><path d="M123.701,34.635c-0,-0 -1.007,-20.989 -0.755,-21.421c0.252,-0.432 17.788,-3.385 17.788,10.883c0,10.797 -12.838,10.538 -17.033,10.538Zm4.699,-14.856l0.251,7.773c0,0 6.461,-1.123 6.377,-4.146c-0.084,-3.023 -3.02,-5.787 -6.628,-3.627Z" style="fill:#ca83ff;"/><path d="M104.241,39.194c-0,-0 -2.062,-19.195 -1.369,-21.111c0.722,-1.998 4.653,-6.09 10.538,-5.474c5.885,0.615 6.227,4.379 6.432,6.706c0.049,0.556 0.116,3.044 0.121,3.617c0.01,1.283 -0.63,2.49 -1.399,3.519c1.693,1.938 3.263,4.702 3.263,4.702l-0,3.593l-6.159,4.106l-5.654,-6.614l0.659,4.047l-0,3.593c-0,-0 -3.558,0.411 -6.432,-0.684Zm10.585,-17.255c-1.205,-0.648 -3.07,-0.754 -4.29,-0.468c-1.134,0.265 -1.887,0.556 -2.359,0.905c0.87,1.56 2.135,1.058 3.796,0.702c1.093,-0.234 2.112,-0.623 2.853,-1.139Z" style="fill:#7f00dd;stroke:#7f00dd;stroke-width:3px;"/><path d="M104.241,35.601c-0,-0 -1.916,-15.465 -1.369,-17.518c0.547,-2.053 4.653,-6.09 10.538,-5.474c5.885,0.615 6.227,4.379 6.432,6.706c0.206,2.326 -2.258,4.995 -3.353,5.405c2.19,0.89 5.338,6.433 5.338,6.433l-6.159,4.105l-6.377,-7.458l1.382,8.485c-0,-0 -3.558,0.41 -6.432,-0.684Zm6.295,-17.723c-3.216,0.752 -3.371,1.711 -2.733,3.624c0.864,2.592 2.254,1.987 4.17,1.576c2.402,-0.515 4.448,-1.779 3.969,-3.49c-0.479,-1.71 -3.628,-2.127 -5.406,-1.71Z" style="fill:#ca83ff;"/><path d="M85.357,41.125l0,-3.595c0,0 1.15,-15.985 3.832,-22.28c2.026,-0.109 7.15,-0.69 7.15,-0.69c-0,0 4.894,14.595 6.372,20.616l-0,3.595c-1.916,1.04 -6.624,1.806 -6.624,1.806l-1.862,-6.022l-2.025,-0.109l-0.766,6.788l-6.077,-0.109Zm9.538,-14.767l-0.232,-1.273l-3.613,0.109l-0.126,1.473l3.971,-0.309Z" style="fill:#7f00dd;stroke:#7f00dd;stroke-width:3px;"/><path d="M85.357,37.53c0,0 1.15,-15.985 3.832,-22.28c2.026,-0.109 7.15,-0.69 7.15,-0.69c-0,0 4.894,14.595 6.372,20.616c-1.916,1.041 -6.624,1.807 -6.624,1.807l-1.862,-6.022l-2.025,-0.109l-0.766,6.788l-6.077,-0.11Zm5.255,-10.839l4.927,-0.383l-0.876,-4.817l-3.613,0.109l-0.438,5.091Z" style="fill:#ca83ff;"/><path d="M81.075,18.388l0,3.611l-2.445,7.308l4.236,-0.13l0,3.611l-0.25,8.081l-12.372,-0.166l0,-3.611l3.364,-11.513l-5.322,1.877l-2.999,-4.874l-0,-3.611l9.914,-5.915l5.874,5.332Z" style="fill:#7f00dd;stroke:#7f00dd;stroke-width:3px;"/><path d="M65.287,18.971l2.999,4.874l6.499,-2.291l-4.541,15.538l12.372,0.167l0.25,-8.082l-5.457,0.167l3.666,-10.956l-5.874,-5.332l-9.914,5.915Z" style="fill:#ca83ff;"/><path d="M65.4,36.425c0.051,4.171 -0.075,5.817 -0.075,5.817l-7.322,-0.068l-0.137,-21.213c-0,-0 0.008,-0.001 0.023,-0.002l-0.023,-3.6c-0,0 4.311,-0.342 6.911,0.137c0.62,10.233 0.667,16.079 0.623,18.929Z" style="fill:#7f00dd;stroke:#7f00dd;stroke-width:3px;"/><path d="M57.866,17.359l0.137,21.213l7.322,0.069c-0,-0 0.41,-5.338 -0.548,-21.145c-2.6,-0.479 -6.911,-0.137 -6.911,-0.137Z" style="fill:#ca83ff;"/><path d="M55.504,17.793l-0,2.264l-3.143,22.582l-4.685,0.684l-2.799,-4.859l-1.111,5.198l-6.642,0.256l-6.106,-20.015l0,-2.264l4.889,-1.93l4.799,10.812l0.914,-4.927l5.542,-0.411l1.886,4.311l1.885,-12.933l4.571,1.232Z" style="fill:#7f00dd;stroke:#7f00dd;stroke-width:3px;"/><path d="M31.018,21.639l6.106,20.015l6.642,-0.256l1.111,-5.198l2.799,4.859l4.685,-0.684l3.143,-22.582l-4.571,-1.232l-1.885,12.933l-1.886,-4.311l-5.542,0.411l-0.914,4.927l-4.799,-10.812l-4.889,1.93Z" style="fill:#ca83ff;"/><path d="M24.861,33.819l-0,3.596l-14.368,1.796l-1.347,-6.286l0,-3.595l14.817,-3.143l0.898,7.632Z" style="fill:#7f00dd;stroke:#7f00dd;stroke-width:3px;"/><path d="M9.146,29.33l1.347,6.285l14.368,-1.796l-0.898,-7.632l-14.817,3.143Z" style="fill:#ca83ff;"/><path d="M184.221,31.355l0.314,3.581l19.069,0.131l1.224,-6.417l-0.314,-3.582l-19.778,-1.42l-0.515,7.707Z" style="fill:#7f00dd;stroke:#7f00dd;stroke-width:3px;"/><path d="M204.514,25.068l-1.224,6.417l-19.069,-0.13l0.515,-7.707l19.778,1.42Z" style="fill:#ca83ff;"/></svg>